<svg preserveAspectRatio="none" width="100%" height="100%" overflow="visible" style="display: block;" viewBox="0 0 60 60" fill="none" xmlns="http://www.w3.org/2000/svg">
<g id="svgg">
<path id="path0" fill-rule="evenodd" clip-rule="evenodd" d="M27.5923 0.566049C27.3739 0.89919 26.8868 1.63914 26.5094 2.21071C25.6229 3.5535 24.8673 4.78564 24.8673 4.88847C24.8673 5.02527 24.7655 4.97807 24.2766 4.61486C23.7397 4.21617 23.7418 4.21677 23.5732 4.40168C23.083 4.93898 22.4453 6.55778 22.162 7.98386C22.0679 8.45741 21.9766 8.88947 21.9591 8.94359C21.939 9.00673 21.575 8.81701 20.9505 8.41772L19.9732 7.79323L19.8391 7.96642C19.5185 8.37894 19.062 10.3164 18.8976 11.9599C18.7785 13.1512 18.9343 13.0961 17.2778 12.5324L16.0338 12.1087L15.9755 12.3168C15.6717 13.4031 16.0369 16.0216 16.6636 17.2478L16.9909 17.8885H16.6034C16.3901 17.8885 16.0528 17.9107 15.8535 17.9375L15.4914 17.9862L15.6036 18.2992C16.1701 19.8789 17.0566 20.9649 18.941 22.3865C21.1255 24.0348 21.5851 24.8977 20.7579 25.7985C19.7398 26.9077 18.3666 26.1142 16.2636 23.2022C14.7183 21.0621 13.5908 19.9439 12.359 19.3299L11.9786 19.1402L11.8704 19.3952C11.8111 19.5356 11.7183 19.7824 11.6642 19.9439C11.5435 20.3041 11.6205 20.317 10.9143 19.8182C10.11 19.2505 9.16979 18.7009 8.10243 18.175L7.21323 17.7364L7.17044 17.9495C7.14691 18.0668 7.10444 18.3302 7.07602 18.5346C7.0143 18.9781 7.09986 18.9703 5.94633 18.6363C4.34545 18.1726 1.01198 17.387 0.934055 17.4546C0.922749 17.4646 1.07706 17.813 1.27752 18.2295C1.47797 18.6456 1.97422 19.9812 2.38032 21.1974C2.78642 22.4136 3.19589 23.557 3.29 23.7383C3.38443 23.9196 3.46143 24.0826 3.46143 24.1003C3.46143 24.1178 3.2512 24.1556 2.99452 24.1842C2.73753 24.2128 2.50988 24.2537 2.48819 24.275C2.4396 24.3228 3.00643 25.8881 3.44309 26.9116C3.62185 27.3307 3.74408 27.6879 3.71414 27.705C3.6845 27.7222 3.31109 27.8331 2.88451 27.9519C2.45763 28.0704 2.10867 28.1903 2.10867 28.2186C2.10867 28.4465 3.90114 31.166 4.47501 31.8089L4.77447 32.1444L10.3316 32.1222L15.8884 32.0999L14.9478 31.4736C12.7444 30.0061 11.409 28.7604 7.43751 24.4656C6.00286 22.9148 5.99675 22.9121 8.27478 24.8216C12.5457 28.4017 15.8853 31.1345 15.9336 31.0891C15.944 31.0795 15.8248 30.7746 15.6693 30.4114C15.1559 29.2132 14.7559 27.2913 14.7666 26.0709C14.7727 25.3448 14.7957 25.3812 15.1623 26.6972C15.7411 28.7745 16.6627 30.5488 17.8422 31.8552L18.0986 32.139H23.1142H28.1298V25.9503C28.1298 19.9718 28.1246 19.7542 27.977 19.5494C27.7372 19.2169 27.6883 18.8524 27.875 18.7941C28.0018 18.7544 28.0363 18.6435 28.0788 18.1414C28.1558 17.2285 28.1356 0.0491988 28.0574 0.00139243C28.0198 -0.0211578 27.8108 0.232907 27.5923 0.566049ZM27.5233 19.9243L27.574 27.2453L27.3696 26.5799C27.0344 25.4876 26.4932 24.6599 24.3313 21.9316C22.859 20.0732 21.8424 18.5046 20.8466 16.5535C20.4178 15.7132 20.3986 15.607 20.7699 16.1272C21.4794 17.1209 22.2485 18.0602 24.191 20.3059C24.8477 21.0651 25.6688 22.0293 26.0156 22.4488C26.3621 22.8682 26.6527 23.2031 26.6607 23.1926C26.6689 23.1824 26.6985 21.9935 26.7267 20.5509C26.7551 19.108 26.8006 17.4321 26.8281 16.8259L26.8782 15.7243L26.2356 14.9137C25.3776 13.831 24.0456 11.3898 24.3133 11.3898C24.3554 11.3898 24.3896 11.4232 24.3896 11.4638C24.3896 11.6586 25.5997 13.2844 26.2154 13.9167L26.9082 14.628L26.9244 13.3418C26.9418 11.9731 27.0289 10.3453 27.2177 7.86629C27.2816 7.02653 27.3399 6.23366 27.3476 6.10468C27.3794 5.54964 27.4762 13.1701 27.5233 19.9243ZM6.53975 34.459L6.81232 34.7431L5.67407 35.4088C5.04795 35.7747 4.51779 36.091 4.49579 36.1115C4.33017 36.2663 6.54891 37.92 7.87937 38.6335C9.45581 39.4789 10.4342 39.7096 13.0502 39.8515C15.4438 39.9817 16.1606 40.3782 15.6745 41.3031C15.427 41.7746 15.082 41.8593 13.2977 41.8888C11.5762 41.9171 10.6585 42.0521 9.8451 42.3963C9.35558 42.6035 9.37391 42.5437 9.66115 42.9977L9.89277 43.3639L9.28316 43.6113C7.9472 44.1538 4.82825 45.8131 4.94681 45.9187C4.98317 45.9514 5.62181 46.3315 6.36588 46.7636C7.10994 47.1959 8.29158 47.889 8.99195 48.3036C10.4404 49.1617 10.8605 49.3701 11.8289 49.7119L12.517 49.9552L11.9722 50.58C11.3268 51.3202 11.3403 51.2745 11.7265 51.4263C13.5468 52.1431 16.2786 52.2315 18.2584 51.6377C18.886 51.4498 18.8484 51.2922 18.5343 52.8016C18.2159 54.3323 18.1853 54.2508 19.0483 54.1805C20.7717 54.0398 22.1315 53.4571 23.1894 52.4065L23.6578 51.9411L23.7525 52.4931C23.8659 53.154 23.8338 53.1483 24.4795 52.6242C25.9905 51.3975 26.6631 49.7961 26.8889 46.8856C27.0503 44.8047 27.2244 44.2124 27.8964 43.4595C28.1075 43.2229 28.1298 43.1447 28.1298 42.6453V42.0927L27.7518 42.0367C27.2214 41.9583 25.9401 42.1218 25.3033 42.3491C24.1058 42.777 23.5429 43.3705 22.5141 45.2894C21.7376 46.7374 21.3996 47.2218 20.6269 47.9939C20.0894 48.5309 20.0328 48.5706 20.2345 48.2687C20.8038 47.4166 21.671 45.4992 22.0279 44.3038L22.148 43.9012L21.1799 44.3543C18.527 45.5958 16.4466 46.0203 13.8857 45.8432C13.295 45.802 12.6771 45.7674 12.513 45.7659C11.8038 45.7593 12.3001 45.6264 13.1896 45.5846C16.2505 45.4412 18.0011 44.8492 22.3454 42.488C24.753 41.1792 25.6223 40.8698 27.1496 40.7778L27.9599 40.7288L27.497 40.1335C26.4379 38.7721 25.0066 37.6701 22.878 36.5772C21.0394 35.6337 20.7726 35.5937 15.7872 35.5125C13.1743 35.4698 11.7891 35.419 11.6892 35.3619C11.5688 35.2933 11.6507 35.2753 12.0953 35.2732C13.1205 35.2684 18.7705 34.7542 19.5292 34.5967C19.7132 34.5585 19.7083 34.5486 19.4098 34.3682L19.0981 34.1797L12.6826 34.1773L6.26748 34.1748L6.53975 34.459ZM21.5249 34.33C21.6343 34.4133 22.3329 34.8234 23.0769 35.2416C25.2376 36.456 26.367 37.2221 27.2984 38.1046L28.1298 38.8926V36.5339V34.1748L24.7279 34.1766C21.3486 34.1785 21.3275 34.1794 21.5249 34.33Z" fill="var(--fill-0, #6FAC32)"/>
<path id="path1" fill-rule="evenodd" clip-rule="evenodd" d="M31.3528 3.39659C29.6495 3.81662 29.3549 6.03887 30.9112 6.7292L31.2333 6.87232V12.088V17.304L30.3181 18.2018L29.4032 19.0996L29.4044 19.5317C29.4066 20.3639 29.538 20.3053 31.2932 18.6907L32.2679 17.7941V12.3222V6.85067L32.5289 6.74333C34.4855 5.93874 33.4135 2.88845 31.3528 3.39659ZM32.3743 4.56799C33.0386 5.22195 32.2074 6.28662 31.3476 5.88312C30.8052 5.62875 30.6982 4.96247 31.1349 4.56198C31.541 4.18975 31.992 4.19186 32.3743 4.56799ZM35.9284 7.12969C34.4681 7.75118 34.5084 10.0576 35.9858 10.4223L36.167 10.4671V14.0018L36.1667 17.5365L35.1522 18.507C34.5943 19.0407 33.0725 20.5185 31.7705 21.7909L29.4032 24.1043V28.6305V33.1565L14.7016 33.1764L0 33.1962V33.6658V34.1358L14.7059 34.1556L29.4121 34.1752L29.3806 42.2596C29.3482 50.6503 29.347 50.687 29.0124 52.3888C28.5317 54.8345 27.6266 56.7807 26.3469 58.1193L25.95 58.5348L26.0969 58.8033C26.3524 59.2699 26.9745 59.9735 27.1548 59.9991C27.5432 60.0544 28.892 57.7549 29.3962 56.1769C30.3762 53.1116 30.4357 52.314 30.4367 42.2593L30.4376 34.1749H33.3986H36.3592L36.0051 34.5468C35.8101 34.7513 34.9285 35.6409 34.0458 36.524C32.7122 37.8578 32.4262 38.1837 32.3538 38.4525C32.2939 38.6759 32.2731 40.4727 32.2872 44.2467L32.3077 49.7174L32.8048 49.7405L33.3023 49.764V44.2199V38.6762L35.5907 36.4254L37.8788 34.1749H42.6913H47.5034L46.7529 34.9163L46.0027 35.6578L42.6366 35.6797L39.2707 35.7017L37.1421 37.7964L35.0132 39.8909L34.99 46.8159L34.967 53.7409L35.1324 53.8278C35.2234 53.8759 35.4486 53.9042 35.6329 53.891L35.9681 53.8672L35.9886 47.0988L36.0087 40.3308L37.8584 38.5072L39.7083 36.6837L42.955 36.6822C46.7877 36.6801 46.2518 36.8319 47.7842 35.3156L48.9368 34.1749H51.0089H53.0807L53.7153 34.8039L54.35 35.4329L53.6735 36.0763C52.673 37.0279 50.7987 38.6735 50.5704 38.801C50.4149 38.8876 49.8297 38.9206 47.9046 38.9513L45.4377 38.9904L44.9998 39.2318C43.4066 40.111 43.641 42.5572 45.3671 43.0684C45.633 43.1471 46.1787 43.1793 47.2531 43.1793H48.7648L49.5284 43.9078C50.3531 44.695 51.0773 45.2067 52.2015 45.7972C52.5954 46.0038 52.9331 46.1869 52.9517 46.2038C53.0018 46.2492 52.8154 46.3811 51.3261 47.355C48.4965 49.2056 47.9211 49.4943 46.2065 49.9221C44.9088 50.2459 44.8559 50.3509 45.6122 51.1029C45.8613 51.3506 46.0489 51.5692 46.029 51.589C45.912 51.7042 43.7436 51.8091 42.1672 51.7758C40.7271 51.7457 40.3662 51.7589 40.2938 51.8446C40.1957 51.961 40.2388 53.3618 40.3485 53.624C40.4117 53.7755 39.8675 53.774 38.9728 53.6204L38.7149 53.5759L38.6941 49.0628L38.6736 44.5495L38.2895 44.5254C37.6322 44.4842 37.679 44.1081 37.679 49.4474C37.679 53.5202 37.6958 54.225 37.7954 54.3227C37.9809 54.5052 39.942 54.7674 41.1231 54.7674C41.7131 54.7677 41.7363 54.7055 41.4687 53.8419C41.3526 53.4682 41.2584 53.0743 41.2591 52.9667L41.2603 52.771L42.8715 52.7641C44.6298 52.7565 45.8209 52.6531 46.9894 52.4063C48.1619 52.1585 48.2044 52.0385 47.3827 51.3007L46.8214 50.7965L47.6702 50.5078C48.931 50.0794 49.9449 49.5138 52.5315 47.797C55.0916 46.0976 55.0895 46.103 53.5326 45.358C52.0069 44.6279 50.8784 43.8721 49.9489 42.9574L49.1797 42.2006L47.4597 42.1889C45.4741 42.1757 45.361 42.1465 45.0805 41.5765C44.789 40.9838 45.0365 40.283 45.615 40.0617C45.7467 40.0112 46.781 39.9637 48.183 39.9435C50.9099 39.9044 50.9297 39.9005 51.6769 39.2279C51.9656 38.9681 52.5777 38.4387 53.0373 38.0517C55.7452 35.7711 55.924 35.4711 55.0562 34.6662L54.5291 34.177L57.2645 34.1562L60 34.1358V33.6658V33.1962L57.1793 33.1755L54.3586 33.155L55.6475 31.8784C56.9999 30.5383 57.0357 30.4836 56.7713 30.1531C56.4364 29.7343 56.3209 29.8071 54.5489 31.5518L52.9193 33.1571H51.4663C50.667 33.1571 50.0133 33.1379 50.0133 33.1147C50.0133 32.9211 55.7758 27.4327 55.928 27.4811C57.7235 28.0521 59.1902 26.2035 58.0355 24.8253C56.7854 23.3328 54.3983 24.7068 55.0354 26.552C55.0525 26.6013 53.5855 28.108 51.7756 29.9006L48.4846 33.1595L46.3654 33.1388L44.2463 33.1177L50.2205 27.2294L56.1947 21.3408L56.7607 21.3874C58.2146 21.5074 59.1667 20.1592 58.5128 18.9066C57.578 17.1161 54.7848 18.2021 55.2964 20.1568L55.429 20.6634L49.0807 26.9101L42.7325 33.1571H36.585H30.4376V28.8224V24.4876L33.1232 21.9124C34.6004 20.4959 36.1224 19.0401 36.5053 18.6772L37.2017 18.0175V14.2318V10.4464L37.4199 10.3646C38.313 10.0305 38.7845 8.95956 38.4026 8.13242C37.9726 7.20065 36.8399 6.74183 35.9284 7.12969ZM37.2017 8.09244C37.8834 8.57531 37.4251 9.66073 36.5792 9.56662C35.9189 9.49355 35.5898 8.88049 35.9262 8.35131C36.2229 7.88407 36.7546 7.77613 37.2017 8.09244ZM40.9303 11.3126C39.4727 12.0703 39.5109 13.8121 41.0011 14.5538L41.26 14.6825V17.3209V19.9595L39.2753 21.919C36.9701 24.1954 37.1219 23.9278 37.1219 25.7116C37.1219 27.5105 36.9588 27.3629 38.9465 27.3629H40.4798L42.9663 24.9053C46.9463 20.9713 46.7581 21.2001 46.3706 20.7662C46.0745 20.434 45.9178 20.5434 44.0663 22.3712C43.0958 23.3294 41.7639 24.6386 41.1063 25.2802L39.9106 26.4471L39.018 26.3936C37.9433 26.3295 38.0649 26.4705 38.1257 25.3587L38.1765 24.4266L40.1468 22.4692C41.2306 21.3925 42.1571 20.4346 42.2057 20.3408C42.2656 20.225 42.2958 19.2719 42.2986 17.4045L42.3029 14.6392L42.6745 14.4044C44.5525 13.217 42.9003 10.2882 40.9303 11.3126ZM42.3457 12.34C42.7182 12.6843 42.6421 13.313 42.1932 13.6025C41.8124 13.8478 41.4714 13.8061 41.1325 13.4726C40.321 12.674 41.5081 11.5658 42.3457 12.34ZM57.5512 19.1829C58.0523 19.676 57.7599 20.4313 57.0302 20.5275C56.2739 20.6273 55.858 19.7169 56.4111 19.1727C56.7915 18.7987 57.164 18.802 57.5512 19.1829ZM50.3018 19.4914C49.4135 19.8029 48.9249 20.8453 49.2488 21.7374L49.3527 22.0236L45.4851 25.8286L41.6175 29.6336L38.952 29.6333H36.2865L36.0613 29.209C35.3814 27.9288 33.6363 27.9465 32.964 29.2403C32.0241 31.0497 34.4824 32.5654 35.8786 31.0374L36.2312 30.6513L38.845 30.648C40.2828 30.6462 41.616 30.6147 41.8079 30.5783C42.1351 30.516 42.4086 30.2644 46.1515 26.5821L50.1463 22.652L50.4943 22.744C51.5907 23.0348 52.655 22.2248 52.655 21.1C52.655 19.8877 51.4737 19.0804 50.3018 19.4914ZM51.2854 20.3546C51.9421 20.6887 51.907 21.529 51.2234 21.8483C50.8891 22.0044 50.6226 21.9458 50.3214 21.649C49.6717 21.0098 50.4693 19.9394 51.2854 20.3546ZM57.2462 25.3193C57.6068 25.6506 57.5976 26.1016 57.2227 26.4702C56.7937 26.8924 56.166 26.7679 55.9307 26.2144C55.5839 25.3974 56.588 24.7143 57.2462 25.3193ZM35.1009 29.43C35.4596 29.783 35.4749 30.17 35.1428 30.4968C34.5655 31.0648 33.6977 30.762 33.702 29.9941C33.7063 29.2271 34.549 28.887 35.1009 29.43ZM40.2351 39.5908C38.6525 39.8644 38.3439 41.8669 39.7526 42.7199C40.1367 42.9523 40.1688 42.9992 40.2635 43.4635C40.302 43.6526 40.4624 43.8212 40.9657 44.2031C41.3244 44.4749 41.9674 45.0417 42.3942 45.4623C43.0115 46.0706 43.2395 46.2446 43.5084 46.3129C44.3261 46.5201 44.3401 46.5288 44.386 46.8652C44.5779 48.2745 46.6756 48.4107 47.3155 47.0552C48.0828 45.4298 45.8961 43.9268 44.6405 45.2164C44.2228 45.6454 43.8436 45.5149 42.9311 44.6279C42.5589 44.2662 42.0218 43.8008 41.7373 43.5933C41.0843 43.1171 41.0195 42.885 41.4745 42.6538C43.1365 41.8089 42.1082 39.2673 40.2351 39.5908ZM40.9443 40.5575C41.1842 40.6799 41.4192 41.0322 41.4192 41.2704C41.4192 41.4412 40.9495 42.3964 40.8658 42.3964C40.7616 42.3964 39.9894 41.7644 39.9057 41.6107C39.5466 40.9508 40.2718 40.2153 40.9443 40.5575ZM46.3132 45.888C46.7786 46.1881 46.7425 46.7537 46.2432 46.9879C45.7433 47.2224 45.2388 46.922 45.2388 46.3899C45.2388 45.7837 45.768 45.5366 46.3132 45.888Z" fill="var(--fill-0, #5A2676)"/>
<path id="path4" fill-rule="evenodd" clip-rule="evenodd" d="M23.5466 4.36231L23.395 4.53851L23.5692 4.39388C23.6673 4.3124 23.7855 4.27482 23.8399 4.30819C23.9019 4.34578 23.9163 4.33435 23.8802 4.27662C23.7968 4.14433 23.7168 4.16477 23.5466 4.36231ZM27.3194 6.51571C27.2987 6.84945 27.3045 7.73913 27.3329 8.49261L27.3842 9.86306L27.3989 7.88586C27.4139 5.87348 27.3879 5.42578 27.3194 6.51571ZM27.1932 8.17961C27.1932 8.33024 27.2097 8.39188 27.2299 8.31641C27.2498 8.24125 27.2498 8.11797 27.2299 8.0425C27.2097 7.96704 27.1932 8.02867 27.1932 8.17961ZM27.1171 9.27585C27.1171 9.46948 27.1324 9.54885 27.1514 9.45204C27.1703 9.35492 27.1703 9.19647 27.1514 9.09966C27.1324 9.00254 27.1171 9.08192 27.1171 9.27585ZM27.0386 10.4112C27.0392 10.6265 27.0545 10.7052 27.0728 10.5862C27.0912 10.4671 27.0906 10.2909 27.0716 10.1947C27.053 10.0985 27.038 10.1956 27.0386 10.4112ZM18.9175 11.3114C18.9175 11.4623 18.934 11.524 18.9538 11.4485C18.974 11.373 18.974 11.2497 18.9538 11.1746C18.934 11.0991 18.9175 11.1607 18.9175 11.3114ZM27.4475 12.7991C27.4475 13.7251 27.4591 14.104 27.4731 13.641C27.4872 13.1779 27.4872 12.4205 27.4731 11.9575C27.4591 11.4945 27.4475 11.8733 27.4475 12.7991ZM26.9641 12.0946C26.9641 12.4605 26.9778 12.6103 26.9943 12.4272C27.0111 12.2444 27.0111 11.9449 26.9943 11.7618C26.9778 11.5787 26.9641 11.7284 26.9641 12.0946ZM18.8395 12.0552C18.8405 12.2275 18.8567 12.2889 18.8756 12.1914C18.8949 12.094 18.8939 11.953 18.8741 11.8781C18.8542 11.8033 18.8386 11.883 18.8395 12.0552ZM15.8954 12.76C15.896 12.9323 15.9125 12.9936 15.9314 12.8962C15.9504 12.7988 15.9498 12.6578 15.9299 12.5829C15.91 12.508 15.8945 12.5877 15.8954 12.76ZM26.3373 14.1106C26.6423 14.423 26.8941 14.6783 26.8968 14.6783C26.8993 14.6783 26.9054 14.5815 26.91 14.463C26.9149 14.3346 26.9029 14.3069 26.8797 14.3944C26.8476 14.5171 26.7538 14.4588 26.3117 14.0421L25.7824 13.5429L26.3373 14.1106ZM15.8954 14.7177C15.896 14.8896 15.9125 14.951 15.9314 14.8536C15.9504 14.7561 15.9498 14.6154 15.9299 14.5406C15.91 14.4657 15.8945 14.5454 15.8954 14.7177ZM26.8803 16.0878C26.8803 16.3247 26.8953 16.4216 26.9136 16.3031C26.932 16.1846 26.932 15.991 26.9136 15.8725C26.8953 15.7541 26.8803 15.8509 26.8803 16.0878ZM20.4905 15.8343C20.4905 15.8812 20.5425 15.9711 20.6061 16.0337C20.6696 16.0962 20.6965 16.175 20.6659 16.2084C20.6351 16.2421 20.6571 16.2427 20.7145 16.2099C20.7976 16.1627 20.7897 16.1158 20.6757 15.982C20.5966 15.8894 20.5226 15.7992 20.5113 15.7811C20.5 15.7631 20.4905 15.7871 20.4905 15.8343ZM16.5117 17.0566C16.5117 17.1411 16.828 17.7322 16.8732 17.7322C16.8949 17.7322 16.8362 17.5824 16.7424 17.3993C16.5578 17.0394 16.5117 16.9709 16.5117 17.0566ZM26.8042 18.0061C26.8045 18.3506 26.8186 18.4817 26.8354 18.2977C26.8522 18.1134 26.8519 17.8317 26.8348 17.6711C26.8177 17.5109 26.8039 17.6615 26.8042 18.0061ZM15.3988 17.9474C15.3997 17.9796 15.4389 18.059 15.4859 18.1236C15.5592 18.2238 15.5657 18.2217 15.529 18.1086C15.4957 18.0067 15.5443 17.9691 15.7401 17.945C15.9852 17.915 15.9837 17.9132 15.6961 17.9011C15.5321 17.8942 15.3982 17.915 15.3988 17.9474ZM28.0641 18.3323C28.0559 18.5713 28.0094 18.7529 27.9507 18.7764C27.8728 18.8074 27.8734 18.8173 27.9532 18.8221C28.0977 18.8308 28.1445 18.6642 28.109 18.2695L28.0782 17.9279L28.0641 18.3323ZM26.7291 20.8639C26.7291 21.4884 26.7413 21.744 26.7566 21.4316C26.7715 21.1195 26.7715 20.6087 26.7566 20.2963C26.7413 19.9842 26.7291 20.2394 26.7291 20.8639ZM27.5294 23.2131C27.5294 24.914 27.5401 25.61 27.5529 24.7594C27.5657 23.9088 27.5657 22.517 27.5529 21.6667C27.5401 20.8161 27.5294 21.5119 27.5294 23.2131ZM14.0448 20.4971C14.0448 20.5103 14.1613 20.6249 14.3037 20.7515L14.5622 20.9815L14.3284 20.7271C14.1105 20.4899 14.0448 20.4364 14.0448 20.4971ZM16.8301 20.5753C16.8301 20.5888 16.9465 20.7034 17.0886 20.8297L17.3474 21.0597L17.1137 20.8053C16.8958 20.5681 16.8301 20.5149 16.8301 20.5753ZM14.6816 21.2016C14.6816 21.2151 14.7978 21.3297 14.9402 21.4563L15.1987 21.6863L14.9649 21.4316C14.747 21.1944 14.6816 21.1412 14.6816 21.2016ZM20.2485 23.4674C20.4435 23.6719 20.6137 23.8394 20.6265 23.8394C20.6861 23.8394 20.6232 23.769 20.2718 23.4446L19.8938 23.0955L20.2485 23.4674ZM6.61611 23.508C6.59136 23.5474 6.70228 23.6998 6.86271 23.8466C7.02344 23.9933 7.11175 24.0573 7.0595 23.9888C7.00694 23.9202 6.98158 23.8469 7.00297 23.8258C7.02405 23.8051 6.95591 23.7086 6.8514 23.6121C6.7469 23.5152 6.64087 23.4683 6.61611 23.508ZM7.67889 24.7399C7.82739 24.8905 7.96673 25.0138 7.98874 25.0138C8.01043 25.0138 7.90684 24.8905 7.75834 24.7399C7.60983 24.5892 7.47049 24.4657 7.44879 24.4657C7.42679 24.4657 7.53038 24.5892 7.67889 24.7399ZM21.0659 24.9356C21.0659 25.0862 21.0824 25.1479 21.1023 25.0727C21.1225 24.9972 21.1225 24.874 21.1023 24.7985C21.0824 24.7233 21.0659 24.785 21.0659 24.9356ZM8.59407 25.7185C8.8538 25.9768 9.08421 26.1885 9.10621 26.1885C9.12821 26.1885 8.93356 25.9768 8.67352 25.7185C8.41379 25.4603 8.18308 25.2489 8.16138 25.2489C8.13938 25.2489 8.33403 25.4603 8.59407 25.7185ZM14.7849 26.5015C14.7849 26.7384 14.7999 26.8352 14.8182 26.7168C14.8363 26.5986 14.8363 26.4047 14.8182 26.2862C14.7999 26.1677 14.7849 26.2646 14.7849 26.5015ZM9.62843 26.8148C9.79955 26.9871 9.95722 27.1281 9.97892 27.1281C10.0009 27.1281 9.879 26.9871 9.70818 26.8148C9.53706 26.6425 9.37939 26.5015 9.35739 26.5015C9.33569 26.5015 9.45762 26.6425 9.62843 26.8148ZM11.2996 28.5373C11.6916 28.9249 12.0302 29.2421 12.0522 29.2421C12.0742 29.2421 11.7711 28.9249 11.379 28.5373C10.987 28.1497 10.6484 27.8325 10.6264 27.8325C10.6047 27.8325 10.9075 28.1497 11.2996 28.5373ZM4.61799 32.0446L4.77994 32.2184L10.4192 32.1983C15.4465 32.1805 16.043 32.1655 15.9119 32.0609C15.8275 31.9935 15.7906 31.9851 15.8248 32.0413C15.9317 32.2163 4.838 32.1805 4.62135 32.0049L4.45604 31.8708L4.61799 32.0446ZM20.5902 32.1977C21.9796 32.2097 24.2533 32.2097 25.6431 32.1977C27.0328 32.1859 25.8958 32.176 23.1166 32.176C20.3375 32.176 19.2004 32.1859 20.5902 32.1977ZM17.407 34.8553C17.4837 34.8748 17.609 34.8748 17.6854 34.8553C17.7621 34.8354 17.6995 34.8195 17.5464 34.8195C17.393 34.8195 17.3303 34.8354 17.407 34.8553ZM16.0543 35.0119C16.1307 35.0315 16.2563 35.0315 16.3326 35.0119C16.4093 34.9921 16.3467 34.9761 16.1936 34.9761C16.0402 34.9761 15.9776 34.9921 16.0543 35.0119ZM15.2586 35.0901C15.335 35.1099 15.4602 35.1099 15.5369 35.0901C15.6136 35.0705 15.551 35.0543 15.3976 35.0543C15.2445 35.0543 15.1819 35.0705 15.2586 35.0901ZM14.3831 35.1686C14.4598 35.1881 14.5851 35.1881 14.6615 35.1686C14.7382 35.1487 14.6755 35.1328 14.5224 35.1328C14.369 35.1328 14.3064 35.1487 14.3831 35.1686ZM13.269 35.2488C13.3894 35.2669 13.5865 35.2669 13.7066 35.2488C13.827 35.2308 13.7286 35.2164 13.4878 35.2164C13.2473 35.2164 13.1486 35.2308 13.269 35.2488ZM11.6577 35.3493C11.8148 35.4494 12.4305 35.4494 12.4932 35.3493C12.524 35.3003 12.355 35.2714 12.0403 35.2723C11.6867 35.2732 11.5737 35.2961 11.6577 35.3493ZM13.3087 35.4843C13.4511 35.5017 13.684 35.5017 13.8261 35.4843C13.9684 35.4668 13.852 35.4527 13.5675 35.4527C13.2831 35.4527 13.1666 35.4668 13.3087 35.4843ZM17.8455 35.4831C17.9445 35.5017 18.0878 35.5011 18.1639 35.4816C18.24 35.4617 18.159 35.4467 17.9839 35.4473C17.8089 35.4482 17.7465 35.4644 17.8455 35.4831ZM19.1188 35.5612C19.2178 35.5802 19.3612 35.5793 19.4372 35.5597C19.513 35.5402 19.432 35.5249 19.2573 35.5258C19.0822 35.5267 19.0198 35.5426 19.1188 35.5612ZM4.73136 36.4651C5.06107 36.8108 5.13257 36.8731 5.13257 36.8141C5.13257 36.8015 4.96237 36.6343 4.75458 36.4422L4.37659 36.0931L4.73136 36.4651ZM26.6976 37.5661C26.6976 37.5796 26.8137 37.6942 26.9561 37.8208L27.2146 38.0508L26.9809 37.7961C26.763 37.5589 26.6976 37.5057 26.6976 37.5661ZM25.9813 38.503C25.9813 38.5147 26.2588 38.7877 26.598 39.1097L27.2146 39.6948L26.62 39.0881C26.0675 38.5246 25.9813 38.4456 25.9813 38.503ZM12.5527 39.8665C12.6294 39.8861 12.7547 39.8861 12.8314 39.8665C12.9081 39.8467 12.8452 39.8307 12.6921 39.8307C12.539 39.8307 12.4763 39.8467 12.5527 39.8665ZM15.7362 40.8696C15.7371 41.0418 15.7533 41.1029 15.7722 41.0055C15.7912 40.908 15.7906 40.7673 15.7707 40.6925C15.7508 40.6176 15.7353 40.6973 15.7362 40.8696ZM27.1572 40.8094C27.3442 40.826 27.6308 40.8257 27.7937 40.8088C27.9565 40.792 27.8035 40.7785 27.4533 40.7788C27.1034 40.7791 26.9699 40.7929 27.1572 40.8094ZM11.9569 41.9036C12.0559 41.9222 12.1992 41.9216 12.2753 41.9021C12.3514 41.8825 12.2704 41.8672 12.0953 41.8681C11.9202 41.8687 11.8579 41.8849 11.9569 41.9036ZM13.8658 41.9036C13.9645 41.9222 14.1255 41.9222 14.2239 41.9036C14.3223 41.8849 14.2419 41.8696 14.0448 41.8696C13.8481 41.8696 13.7674 41.8849 13.8658 41.9036ZM12.2148 45.6905C12.2148 45.7467 12.3651 45.7563 12.6722 45.7199C13.2873 45.6466 13.2989 45.6066 12.7055 45.6066C12.4094 45.6066 12.2148 45.64 12.2148 45.6905ZM26.9546 45.9199C26.9546 46.0705 26.9711 46.1322 26.9909 46.0567C27.0111 45.9815 27.0111 45.8583 26.9909 45.7828C26.9711 45.7073 26.9546 45.769 26.9546 45.9199ZM14.7428 45.8982C14.8858 45.9157 15.1006 45.9154 15.2201 45.8973C15.3395 45.8796 15.2225 45.8652 14.96 45.8658C14.6975 45.8661 14.5995 45.8808 14.7428 45.8982ZM26.8794 47.0552C26.88 47.2705 26.8953 47.3493 26.9136 47.2302C26.932 47.1111 26.9314 46.935 26.9127 46.8387C26.8938 46.7425 26.8788 46.8396 26.8794 47.0552ZM14.7412 52.0824C14.8396 52.101 15.001 52.101 15.0994 52.0824C15.1978 52.0638 15.1171 52.0484 14.9203 52.0484C14.7232 52.0484 14.6428 52.0638 14.7412 52.0824ZM15.5385 52.0839C15.6815 52.1013 15.8963 52.1011 16.0158 52.083C16.1356 52.0653 16.0185 52.0508 15.7557 52.0514C15.4932 52.0517 15.3955 52.0665 15.5385 52.0839ZM19.1576 54.1952C19.2343 54.2148 19.3596 54.2148 19.436 54.1952C19.5127 54.1754 19.4501 54.1594 19.297 54.1594C19.1436 54.1594 19.0809 54.1754 19.1576 54.1952Z" fill="var(--fill-0, #B7D69A)"/>
</g>
</svg>
