<svg preserveAspectRatio="none" width="100%" height="100%" overflow="visible" style="display: block;" viewBox="0 0 40 27" fill="none" xmlns="http://www.w3.org/2000/svg">
<path id="Vector" d="M10 1.22727C10 0.90178 10.1317 0.589618 10.3661 0.35946C10.6005 0.129302 10.9185 0 11.25 0H38.75C39.0815 0 39.3995 0.129302 39.6339 0.35946C39.8683 0.589618 40 0.90178 40 1.22727C40 1.55277 39.8683 1.86493 39.6339 2.09509C39.3995 2.32524 39.0815 2.45455 38.75 2.45455H11.25C10.9185 2.45455 10.6005 2.32524 10.3661 2.09509C10.1317 1.86493 10 1.55277 10 1.22727ZM12.5 25.7727C12.5 25.4472 12.6317 25.1351 12.8661 24.9049C13.1005 24.6748 13.4185 24.5455 13.75 24.5455H38.75C39.0815 24.5455 39.3995 24.6748 39.6339 24.9049C39.8683 25.1351 40 25.4472 40 25.7727C40 26.0982 39.8683 26.4104 39.6339 26.6405C39.3995 26.8707 39.0815 27 38.75 27H13.75C13.4185 27 13.1005 26.8707 12.8661 26.6405C12.6317 26.4104 12.5 26.0982 12.5 25.7727ZM1.25 12.2727C0.918479 12.2727 0.600537 12.402 0.366117 12.6322C0.131696 12.8623 0 13.1745 0 13.5C0 13.8255 0.131696 14.1377 0.366117 14.3678C0.600537 14.598 0.918479 14.7273 1.25 14.7273H38.75C39.0815 14.7273 39.3995 14.598 39.6339 14.3678C39.8683 14.1377 40 13.8255 40 13.5C40 13.1745 39.8683 12.8623 39.6339 12.6322C39.3995 12.402 39.0815 12.2727 38.75 12.2727H1.25Z" fill="var(--fill-0, black)"/>
</svg>
