<svg preserveAspectRatio="none" width="100%" height="100%" overflow="visible" style="display: block;" viewBox="0 0 21.4167 21.4167" fill="none" xmlns="http://www.w3.org/2000/svg">
<g id="Group">
<path id="Vector" d="M1.33334 9.66667C1.33334 5.73854 1.33334 3.77396 2.55417 2.55417C3.775 1.33438 5.73854 1.33334 9.66667 1.33334H11.75C15.6781 1.33334 17.6427 1.33334 18.8625 2.55417C20.0823 3.775 20.0833 5.73854 20.0833 9.66667V11.75C20.0833 15.6781 20.0833 17.6427 18.8625 18.8625C17.6417 20.0823 15.6781 20.0833 11.75 20.0833H9.66667C5.73854 20.0833 3.77396 20.0833 2.55417 18.8625C1.33438 17.6417 1.33334 15.6781 1.33334 11.75V9.66667Z" stroke="var(--stroke-0, #322B2B)" stroke-width="2.66667"/>
<path id="Vector_2" d="M15.3958 7.58334C16.2588 7.58334 16.9583 6.88378 16.9583 6.02084C16.9583 5.15789 16.2588 4.45834 15.3958 4.45834C14.5329 4.45834 13.8333 5.15789 13.8333 6.02084C13.8333 6.88378 14.5329 7.58334 15.3958 7.58334Z" fill="var(--fill-0, #322B2B)"/>
<path id="Vector_3" d="M10.7083 13.8333C12.4342 13.8333 13.8333 12.4342 13.8333 10.7083C13.8333 8.98245 12.4342 7.58334 10.7083 7.58334C8.98245 7.58334 7.58334 8.98245 7.58334 10.7083C7.58334 12.4342 8.98245 13.8333 10.7083 13.8333Z" stroke="var(--stroke-0, #322B2B)" stroke-width="2.66667"/>
</g>
</svg>
