<svg preserveAspectRatio="none" width="100%" height="100%" overflow="visible" style="display: block;" viewBox="0 0 60 60" fill="none" xmlns="http://www.w3.org/2000/svg">
<g id="svgg">
<path id="path0" fill-rule="evenodd" clip-rule="evenodd" d="M27.5924 0.566048C27.3739 0.89919 26.8868 1.63914 26.5095 2.21071C25.623 3.5535 24.8673 4.78564 24.8673 4.88847C24.8673 5.02527 24.7656 4.97807 24.2767 4.61486C23.7398 4.21617 23.7419 4.21677 23.5732 4.40168C23.0831 4.93898 22.4454 6.55778 22.1621 7.98386C22.068 8.45741 21.9766 8.88947 21.9592 8.94359C21.939 9.00673 21.5751 8.81701 20.9505 8.41772L19.9733 7.79323L19.8392 7.96642C19.5186 8.37894 19.0621 10.3164 18.8977 11.9599C18.7785 13.1512 18.9344 13.0961 17.2779 12.5324L16.0339 12.1087L15.9755 12.3168C15.6718 13.4031 16.037 16.0216 16.6637 17.2478L16.9909 17.8885H16.6035C16.3902 17.8885 16.0528 17.9107 15.8536 17.9375L15.4915 17.9862L15.6037 18.2992C16.1702 19.8789 17.0566 20.9649 18.9411 22.3865C21.1256 24.0348 21.5852 24.8977 20.758 25.7985C19.7399 26.9077 18.3666 26.1142 16.2637 23.2022C14.7184 21.0621 13.5909 19.9439 12.3591 19.3299L11.9787 19.1402L11.8705 19.3952C11.8112 19.5356 11.7183 19.7824 11.6642 19.9439C11.5435 20.3041 11.6205 20.317 10.9144 19.8182C10.1101 19.2505 9.16987 18.7009 8.10251 18.175L7.2133 17.7364L7.17052 17.9495C7.14699 18.0668 7.10451 18.3302 7.0761 18.5346C7.01437 18.9781 7.09993 18.9703 5.9464 18.6363C4.34552 18.1726 1.01205 17.387 0.934129 17.4546C0.922823 17.4646 1.07714 17.813 1.27759 18.2295C1.47804 18.6456 1.97429 19.9812 2.38039 21.1974C2.7865 22.4136 3.19596 23.557 3.29008 23.7383C3.3845 23.9196 3.4615 24.0826 3.4615 24.1003C3.4615 24.1178 3.25127 24.1556 2.99459 24.1842C2.7376 24.2128 2.50996 24.2537 2.48826 24.275C2.43967 24.3228 3.00651 25.8881 3.44317 26.9116C3.62193 27.3307 3.74415 27.6879 3.71421 27.705C3.68457 27.7222 3.31116 27.8331 2.88459 27.9519C2.4577 28.0704 2.10874 28.1903 2.10874 28.2186C2.10874 28.4465 3.90122 31.166 4.47508 31.8089L4.77454 32.1444L10.3316 32.1222L15.8884 32.0999L14.9479 31.4736C12.7444 30.0061 11.4091 28.7604 7.43759 24.4656C6.00293 22.9148 5.99682 22.9121 8.27485 24.8216C12.5458 28.4017 15.8854 31.1345 15.9337 31.0891C15.9441 31.0795 15.8249 30.7746 15.6694 30.4114C15.156 29.2132 14.756 27.2913 14.7667 26.0709C14.7728 25.3448 14.7957 25.3812 15.1624 26.6972C15.7412 28.7745 16.6628 30.5488 17.8423 31.8552L18.0986 32.139H23.1143H28.1299V25.9503C28.1299 19.9718 28.1247 19.7541 27.9771 19.5494C27.7372 19.2169 27.6884 18.8524 27.8751 18.7941C28.0019 18.7544 28.0364 18.6435 28.0789 18.1414C28.1559 17.2285 28.1357 0.0491988 28.0575 0.00139243C28.0199 -0.0211578 27.8109 0.232907 27.5924 0.566048ZM27.5233 19.9243L27.5741 27.2453L27.3696 26.5799C27.0344 25.4876 26.4933 24.6599 24.3314 21.9316C22.8591 20.0732 21.8425 18.5046 20.8466 16.5535C20.4179 15.7132 20.3987 15.607 20.7699 16.1272C21.4795 17.1209 22.2486 18.0602 24.1911 20.3059C24.8478 21.0651 25.6688 22.0293 26.0157 22.4487C26.3622 22.8682 26.6528 23.2031 26.6607 23.1926C26.669 23.1824 26.6986 21.9935 26.7267 20.5509C26.7551 19.108 26.8007 17.4321 26.8282 16.8259L26.8783 15.7243L26.2357 14.9137C25.3776 13.831 24.0456 11.3898 24.3133 11.3898C24.3555 11.3898 24.3897 11.4232 24.3897 11.4638C24.3897 11.6586 25.5998 13.2844 26.2155 13.9167L26.9082 14.628L26.9244 13.3418C26.9418 11.9731 27.0289 10.3453 27.2178 7.86629C27.2816 7.02653 27.34 6.23366 27.3476 6.10467C27.3794 5.54964 27.4763 13.1701 27.5233 19.9243ZM6.53982 34.459L6.81239 34.7431L5.67414 35.4088C5.04802 35.7747 4.51786 36.091 4.49586 36.1115C4.33024 36.2663 6.54899 37.92 7.87944 38.6335C9.45588 39.4789 10.4343 39.7096 13.0503 39.8515C15.4438 39.9817 16.1607 40.3782 15.6745 41.3031C15.427 41.7746 15.082 41.8593 13.2978 41.8888C11.5762 41.9171 10.6586 42.0521 9.84518 42.3963C9.35565 42.6035 9.37399 42.5437 9.66122 42.9977L9.89284 43.3639L9.28323 43.6113C7.94728 44.1537 4.82832 45.8131 4.94688 45.9187C4.98324 45.9514 5.62189 46.3315 6.36595 46.7636C7.11001 47.1959 8.29165 47.889 8.99202 48.3036C10.4404 49.1617 10.8606 49.3701 11.8289 49.7119L12.5171 49.9552L11.9723 50.5799C11.3269 51.3202 11.3403 51.2745 11.7266 51.4263C13.5469 52.1431 16.2787 52.2315 18.2585 51.6377C18.8861 51.4498 18.8485 51.2922 18.5344 52.8016C18.216 54.3323 18.1854 54.2508 19.0483 54.1805C20.7718 54.0397 22.1316 53.457 23.1894 52.4065L23.6579 51.9411L23.7526 52.4931C23.866 53.154 23.8339 53.1483 24.4796 52.6242C25.9906 51.3975 26.6632 49.7961 26.889 46.8856C27.0503 44.8047 27.2245 44.2124 27.8964 43.4595C28.1076 43.2229 28.1299 43.1447 28.1299 42.6453V42.0927L27.7519 42.0367C27.2214 41.9583 25.9402 42.1218 25.3034 42.3491C24.1058 42.777 23.543 43.3705 22.5141 45.2894C21.7377 46.7374 21.3997 47.2218 20.6269 47.9939C20.0894 48.5309 20.0329 48.5706 20.2346 48.2687C20.8039 47.4166 21.6711 45.4992 22.028 44.3038L22.1481 43.9012L21.18 44.3543C18.527 45.5958 16.4467 46.0203 13.8857 45.8432C13.2951 45.802 12.6772 45.7674 12.5131 45.7659C11.8039 45.7593 12.3001 45.6264 13.1896 45.5846C16.2505 45.4412 18.0012 44.8492 22.3455 42.488C24.753 41.1792 25.6224 40.8698 27.1496 40.7778L27.96 40.7288L27.4971 40.1335C26.438 38.7721 25.0067 37.6701 22.8781 36.5772C21.0394 35.6337 20.7727 35.5937 15.7873 35.5125C13.1744 35.4698 11.7892 35.419 11.6893 35.3619C11.5689 35.2933 11.6508 35.2753 12.0954 35.2732C13.1206 35.2684 18.7706 34.7542 19.5293 34.5967C19.7133 34.5585 19.7084 34.5486 19.4098 34.3682L19.0982 34.1797L12.6827 34.1772L6.26756 34.1748L6.53982 34.459ZM21.525 34.33C21.6344 34.4133 22.3329 34.8234 23.077 35.2416C25.2377 36.456 26.3671 37.2221 27.2984 38.1046L28.1299 38.8926V36.5339V34.1748L24.728 34.1766C21.3487 34.1784 21.3276 34.1794 21.525 34.33Z" fill="var(--fill-0, #6FAC32)"/>
<path id="path1" fill-rule="evenodd" clip-rule="evenodd" d="M31.3528 3.39659C29.6495 3.81662 29.3549 6.03887 30.9112 6.7292L31.2333 6.87232V12.088V17.304L30.3181 18.2018L29.4032 19.0996L29.4044 19.5317C29.4066 20.3639 29.538 20.3053 31.2932 18.6907L32.2679 17.7941V12.3222V6.85067L32.5289 6.74333C34.4855 5.93874 33.4135 2.88845 31.3528 3.39659ZM32.3743 4.56799C33.0386 5.22195 32.2074 6.28662 31.3476 5.88312C30.8052 5.62875 30.6982 4.96247 31.1349 4.56198C31.541 4.18975 31.992 4.19186 32.3743 4.56799ZM35.9284 7.12969C34.4681 7.75118 34.5084 10.0576 35.9858 10.4223L36.167 10.4671V14.0018L36.1667 17.5365L35.1522 18.507C34.5943 19.0407 33.0725 20.5185 31.7705 21.7909L29.4032 24.1043V28.6305V33.1565L14.7016 33.1764L0 33.1962V33.6658V34.1358L14.7059 34.1556L29.4121 34.1752L29.3806 42.2596C29.3482 50.6503 29.347 50.687 29.0124 52.3888C28.5317 54.8345 27.6266 56.7807 26.3469 58.1193L25.95 58.5348L26.0969 58.8033C26.3524 59.2699 26.9745 59.9735 27.1548 59.9991C27.5432 60.0544 28.892 57.7549 29.3962 56.1769C30.3762 53.1116 30.4357 52.314 30.4367 42.2593L30.4376 34.1749H33.3986H36.3592L36.0051 34.5468C35.8101 34.7513 34.9285 35.6409 34.0458 36.524C32.7122 37.8578 32.4262 38.1837 32.3538 38.4525C32.2939 38.6759 32.2731 40.4727 32.2872 44.2467L32.3077 49.7174L32.8048 49.7405L33.3023 49.764V44.2199V38.6762L35.5907 36.4254L37.8788 34.1749H42.6913H47.5034L46.7529 34.9163L46.0027 35.6578L42.6366 35.6797L39.2707 35.7017L37.1421 37.7964L35.0132 39.8909L34.99 46.8159L34.967 53.7409L35.1324 53.8278C35.2234 53.8759 35.4486 53.9042 35.6329 53.891L35.9681 53.8672L35.9886 47.0988L36.0087 40.3308L37.8584 38.5072L39.7083 36.6837L42.955 36.6822C46.7877 36.6801 46.2518 36.8319 47.7842 35.3156L48.9368 34.1749H51.0089H53.0807L53.7153 34.8039L54.35 35.4329L53.6735 36.0763C52.673 37.0279 50.7987 38.6735 50.5704 38.801C50.4149 38.8876 49.8297 38.9206 47.9046 38.9513L45.4377 38.9904L44.9998 39.2318C43.4066 40.111 43.641 42.5572 45.3671 43.0684C45.633 43.1471 46.1787 43.1793 47.2531 43.1793H48.7648L49.5284 43.9078C50.3531 44.695 51.0773 45.2067 52.2015 45.7972C52.5954 46.0038 52.9331 46.1869 52.9517 46.2038C53.0018 46.2492 52.8154 46.3811 51.3261 47.355C48.4965 49.2056 47.9211 49.4943 46.2065 49.9221C44.9088 50.2459 44.8559 50.3509 45.6122 51.1029C45.8613 51.3506 46.0489 51.5692 46.029 51.589C45.912 51.7042 43.7436 51.8091 42.1672 51.7758C40.7271 51.7457 40.3662 51.7589 40.2938 51.8446C40.1957 51.961 40.2388 53.3618 40.3485 53.624C40.4117 53.7755 39.8675 53.774 38.9728 53.6204L38.7149 53.5759L38.6941 49.0628L38.6736 44.5495L38.2895 44.5254C37.6322 44.4842 37.679 44.1081 37.679 49.4474C37.679 53.5202 37.6958 54.225 37.7954 54.3227C37.9809 54.5052 39.942 54.7674 41.1231 54.7674C41.7131 54.7677 41.7363 54.7055 41.4687 53.8419C41.3526 53.4682 41.2584 53.0743 41.2591 52.9667L41.2603 52.771L42.8715 52.7641C44.6298 52.7565 45.8209 52.6531 46.9894 52.4063C48.1619 52.1585 48.2044 52.0385 47.3827 51.3007L46.8214 50.7965L47.6702 50.5078C48.931 50.0794 49.9449 49.5138 52.5315 47.797C55.0916 46.0976 55.0895 46.103 53.5326 45.358C52.0069 44.6279 50.8784 43.8721 49.9489 42.9574L49.1797 42.2006L47.4597 42.1889C45.4741 42.1757 45.361 42.1465 45.0805 41.5765C44.789 40.9838 45.0365 40.283 45.615 40.0617C45.7467 40.0112 46.781 39.9637 48.183 39.9435C50.9099 39.9044 50.9297 39.9005 51.6769 39.2279C51.9656 38.9681 52.5777 38.4387 53.0373 38.0517C55.7452 35.7711 55.924 35.4711 55.0562 34.6662L54.5291 34.177L57.2645 34.1562L60 34.1358V33.6658V33.1962L57.1793 33.1755L54.3586 33.155L55.6475 31.8784C56.9999 30.5383 57.0357 30.4836 56.7713 30.1531C56.4364 29.7343 56.3209 29.8071 54.5489 31.5518L52.9193 33.1571H51.4663C50.667 33.1571 50.0133 33.1379 50.0133 33.1147C50.0133 32.9211 55.7758 27.4327 55.928 27.4811C57.7235 28.0521 59.1902 26.2035 58.0355 24.8253C56.7854 23.3328 54.3983 24.7068 55.0354 26.552C55.0525 26.6013 53.5855 28.108 51.7756 29.9006L48.4846 33.1595L46.3654 33.1388L44.2463 33.1177L50.2205 27.2294L56.1947 21.3408L56.7607 21.3874C58.2146 21.5074 59.1667 20.1592 58.5128 18.9066C57.578 17.1161 54.7848 18.2021 55.2964 20.1568L55.429 20.6634L49.0807 26.9101L42.7325 33.1571H36.585H30.4376V28.8224V24.4876L33.1232 21.9124C34.6004 20.4959 36.1224 19.0401 36.5053 18.6772L37.2017 18.0175V14.2318V10.4464L37.4199 10.3646C38.313 10.0305 38.7845 8.95956 38.4026 8.13242C37.9726 7.20065 36.8399 6.74183 35.9284 7.12969ZM37.2017 8.09244C37.8834 8.57531 37.4251 9.66073 36.5792 9.56662C35.9189 9.49355 35.5898 8.88049 35.9262 8.35131C36.2229 7.88407 36.7546 7.77613 37.2017 8.09244ZM40.9303 11.3126C39.4727 12.0703 39.5109 13.8121 41.0011 14.5538L41.26 14.6825V17.3209V19.9595L39.2753 21.919C36.9701 24.1954 37.1219 23.9278 37.1219 25.7116C37.1219 27.5105 36.9588 27.3629 38.9465 27.3629H40.4798L42.9663 24.9053C46.9463 20.9713 46.7581 21.2001 46.3706 20.7662C46.0745 20.434 45.9178 20.5434 44.0663 22.3712C43.0958 23.3294 41.7639 24.6386 41.1063 25.2802L39.9106 26.4471L39.018 26.3936C37.9433 26.3295 38.0649 26.4705 38.1257 25.3587L38.1765 24.4266L40.1468 22.4692C41.2306 21.3925 42.1571 20.4346 42.2057 20.3408C42.2656 20.225 42.2958 19.2719 42.2986 17.4045L42.3029 14.6392L42.6745 14.4044C44.5525 13.217 42.9003 10.2882 40.9303 11.3126ZM42.3457 12.34C42.7182 12.6843 42.6421 13.313 42.1932 13.6025C41.8124 13.8478 41.4714 13.8061 41.1325 13.4726C40.321 12.674 41.5081 11.5658 42.3457 12.34ZM57.5512 19.1829C58.0523 19.676 57.7599 20.4313 57.0302 20.5275C56.2739 20.6273 55.858 19.7169 56.4111 19.1727C56.7915 18.7987 57.164 18.802 57.5512 19.1829ZM50.3018 19.4914C49.4135 19.8029 48.9249 20.8453 49.2488 21.7374L49.3527 22.0236L45.4851 25.8286L41.6175 29.6336L38.952 29.6333H36.2865L36.0613 29.209C35.3814 27.9288 33.6363 27.9465 32.964 29.2403C32.0241 31.0497 34.4824 32.5654 35.8786 31.0374L36.2312 30.6513L38.845 30.648C40.2828 30.6462 41.616 30.6147 41.8079 30.5783C42.1351 30.516 42.4086 30.2644 46.1515 26.5821L50.1463 22.652L50.4943 22.744C51.5907 23.0348 52.655 22.2248 52.655 21.1C52.655 19.8877 51.4737 19.0804 50.3018 19.4914ZM51.2854 20.3546C51.9421 20.6887 51.907 21.529 51.2234 21.8483C50.8891 22.0044 50.6226 21.9458 50.3214 21.649C49.6717 21.0098 50.4693 19.9394 51.2854 20.3546ZM57.2462 25.3193C57.6068 25.6506 57.5976 26.1016 57.2227 26.4702C56.7937 26.8924 56.166 26.7679 55.9307 26.2144C55.5839 25.3974 56.588 24.7143 57.2462 25.3193ZM35.1009 29.43C35.4596 29.783 35.4749 30.17 35.1428 30.4968C34.5655 31.0648 33.6977 30.762 33.702 29.9941C33.7063 29.2271 34.549 28.887 35.1009 29.43ZM40.2351 39.5908C38.6525 39.8644 38.3439 41.8669 39.7526 42.7199C40.1367 42.9523 40.1688 42.9992 40.2635 43.4635C40.302 43.6526 40.4624 43.8212 40.9657 44.2031C41.3244 44.4749 41.9674 45.0417 42.3942 45.4623C43.0115 46.0706 43.2395 46.2446 43.5084 46.3129C44.3261 46.5201 44.3401 46.5288 44.386 46.8652C44.5779 48.2745 46.6756 48.4107 47.3155 47.0552C48.0828 45.4298 45.8961 43.9268 44.6405 45.2164C44.2228 45.6454 43.8436 45.5149 42.9311 44.6279C42.5589 44.2662 42.0218 43.8008 41.7373 43.5933C41.0843 43.1171 41.0195 42.885 41.4745 42.6538C43.1365 41.8089 42.1082 39.2673 40.2351 39.5908ZM40.9443 40.5575C41.1842 40.6799 41.4192 41.0322 41.4192 41.2704C41.4192 41.4412 40.9495 42.3964 40.8658 42.3964C40.7616 42.3964 39.9894 41.7644 39.9057 41.6107C39.5466 40.9508 40.2718 40.2153 40.9443 40.5575ZM46.3132 45.888C46.7786 46.1881 46.7425 46.7537 46.2432 46.9879C45.7433 47.2224 45.2388 46.922 45.2388 46.3899C45.2388 45.7837 45.768 45.5366 46.3132 45.888Z" fill="var(--fill-0, #5A2676)"/>
<path id="path4" fill-rule="evenodd" clip-rule="evenodd" d="M23.5466 4.36242L23.3951 4.53862L23.5692 4.39399C23.6673 4.31251 23.7856 4.27493 23.84 4.3083C23.902 4.34589 23.9164 4.33446 23.8803 4.27673C23.7969 4.14444 23.7168 4.16488 23.5466 4.36242ZM27.3195 6.51582C27.2987 6.84956 27.3045 7.73924 27.333 8.49272L27.3843 9.86316L27.399 7.88597C27.4139 5.87359 27.388 5.42589 27.3195 6.51582ZM27.1933 8.17972C27.1933 8.33035 27.2098 8.39199 27.23 8.31652C27.2498 8.24136 27.2498 8.11808 27.23 8.04261C27.2098 7.96715 27.1933 8.02878 27.1933 8.17972ZM27.1172 9.27596C27.1172 9.46959 27.1325 9.54896 27.1514 9.45215C27.1704 9.35503 27.1704 9.19658 27.1514 9.09977C27.1325 9.00265 27.1172 9.08203 27.1172 9.27596ZM27.0387 10.4113C27.0393 10.6266 27.0546 10.7053 27.0729 10.5863C27.0912 10.4672 27.0906 10.291 27.0717 10.1948C27.0531 10.0986 27.0381 10.1957 27.0387 10.4113ZM18.9175 11.3115C18.9175 11.4624 18.934 11.5241 18.9539 11.4486C18.9741 11.3731 18.9741 11.2499 18.9539 11.1747C18.934 11.0992 18.9175 11.1609 18.9175 11.3115ZM27.4475 12.7992C27.4475 13.7253 27.4592 14.1041 27.4732 13.6411C27.4873 13.178 27.4873 12.4207 27.4732 11.9576C27.4592 11.4946 27.4475 11.8734 27.4475 12.7992ZM26.9641 12.0947C26.9641 12.4606 26.9779 12.6104 26.9944 12.4273C27.0112 12.2445 27.0112 11.945 26.9944 11.7619C26.9779 11.5788 26.9641 11.7285 26.9641 12.0947ZM18.8396 12.0553C18.8405 12.2276 18.8567 12.289 18.8757 12.1915C18.8949 12.0941 18.894 11.9531 18.8742 11.8782C18.8543 11.8034 18.8387 11.8831 18.8396 12.0553ZM15.8954 12.7601C15.8961 12.9324 15.9126 12.9937 15.9315 12.8963C15.9505 12.7989 15.9498 12.6579 15.93 12.583C15.9101 12.5082 15.8945 12.5878 15.8954 12.7601ZM26.3374 14.1107C26.6424 14.4231 26.8942 14.6784 26.8969 14.6784C26.8993 14.6784 26.9055 14.5816 26.91 14.4631C26.9149 14.3347 26.903 14.3071 26.8798 14.3945C26.8477 14.5172 26.7539 14.4589 26.3117 14.0422L25.7825 13.5431L26.3374 14.1107ZM15.8954 14.7178C15.8961 14.8898 15.9126 14.9511 15.9315 14.8537C15.9505 14.7563 15.9498 14.6155 15.93 14.5407C15.9101 14.4658 15.8945 14.5455 15.8954 14.7178ZM26.8804 16.0879C26.8804 16.3248 26.8954 16.4217 26.9137 16.3032C26.932 16.1847 26.932 15.9911 26.9137 15.8726C26.8954 15.7542 26.8804 15.851 26.8804 16.0879ZM20.4906 15.8345C20.4906 15.8814 20.5426 15.9713 20.6061 16.0338C20.6697 16.0963 20.6966 16.1751 20.666 16.2085C20.6352 16.2422 20.6572 16.2428 20.7146 16.21C20.7977 16.1628 20.7898 16.1159 20.6758 15.9821C20.5967 15.8895 20.5227 15.7993 20.5114 15.7812C20.5001 15.7632 20.4906 15.7872 20.4906 15.8345ZM16.5118 17.0567C16.5118 17.1412 16.828 17.7323 16.8733 17.7323C16.895 17.7323 16.8363 17.5825 16.7425 17.3994C16.5579 17.0395 16.5118 16.971 16.5118 17.0567ZM26.8043 18.0062C26.8046 18.3508 26.8187 18.4818 26.8355 18.2978C26.8523 18.1135 26.852 17.8318 26.8349 17.6712C26.8178 17.511 26.804 17.6616 26.8043 18.0062ZM15.3989 17.9476C15.3998 17.9797 15.4389 18.0591 15.486 18.1237C15.5593 18.2239 15.5657 18.2218 15.5291 18.1087C15.4958 18.0068 15.5443 17.9692 15.7402 17.9452C15.9853 17.9151 15.9838 17.9133 15.6962 17.9013C15.5321 17.8943 15.3983 17.9151 15.3989 17.9476ZM28.0642 18.3324C28.0559 18.5714 28.0095 18.753 27.9508 18.7765C27.8729 18.8075 27.8735 18.8174 27.9533 18.8222C28.0978 18.8309 28.1446 18.6644 28.1091 18.2696L28.0782 17.928L28.0642 18.3324ZM26.7291 20.864C26.7291 21.4885 26.7414 21.7441 26.7566 21.4317C26.7716 21.1196 26.7716 20.6088 26.7566 20.2964C26.7414 19.9843 26.7291 20.2396 26.7291 20.864ZM27.5294 23.2132C27.5294 24.9141 27.5401 25.6101 27.553 24.7595C27.5658 23.9089 27.5658 22.5171 27.553 21.6668C27.5401 20.8162 27.5294 21.512 27.5294 23.2132ZM14.0449 20.4972C14.0449 20.5105 14.1613 20.625 14.3037 20.7516L14.5622 20.9816L14.3285 20.7272C14.1106 20.49 14.0449 20.4365 14.0449 20.4972ZM16.8302 20.5754C16.8302 20.5889 16.9466 20.7035 17.0887 20.8298L17.3475 21.0598L17.1138 20.8054C16.8959 20.5682 16.8302 20.515 16.8302 20.5754ZM14.6817 21.2017C14.6817 21.2152 14.7978 21.3298 14.9402 21.4564L15.1987 21.6864L14.965 21.4317C14.7471 21.1945 14.6817 21.1413 14.6817 21.2017ZM20.2486 23.4675C20.4436 23.672 20.6138 23.8395 20.6266 23.8395C20.6862 23.8395 20.6232 23.7691 20.2718 23.4447L19.8938 23.0956L20.2486 23.4675ZM6.61619 23.5081C6.59144 23.5475 6.70236 23.7 6.86278 23.8467C7.02351 23.9934 7.11182 24.0575 7.05957 23.9889C7.00701 23.9203 6.98165 23.847 7.00304 23.8259C7.02412 23.8052 6.95598 23.7087 6.85148 23.6122C6.74697 23.5153 6.64094 23.4684 6.61619 23.5081ZM7.67896 24.74C7.82747 24.8906 7.96681 25.0139 7.98881 25.0139C8.0105 25.0139 7.90692 24.8906 7.75841 24.74C7.6099 24.5893 7.47056 24.4658 7.44887 24.4658C7.42687 24.4658 7.53045 24.5893 7.67896 24.74ZM21.066 24.9357C21.066 25.0863 21.0825 25.148 21.1024 25.0728C21.1225 24.9973 21.1225 24.8741 21.1024 24.7986C21.0825 24.7234 21.066 24.7851 21.066 24.9357ZM8.59414 25.7186C8.85388 25.9769 9.08428 26.1886 9.10628 26.1886C9.12828 26.1886 8.93364 25.9769 8.67359 25.7186C8.41386 25.4604 8.18315 25.249 8.16146 25.249C8.13945 25.249 8.3341 25.4604 8.59414 25.7186ZM14.785 26.5016C14.785 26.7385 14.8 26.8353 14.8183 26.7169C14.8363 26.5987 14.8363 26.4048 14.8183 26.2863C14.8 26.1678 14.785 26.2647 14.785 26.5016ZM9.6285 26.8149C9.79962 26.9872 9.9573 27.1282 9.97899 27.1282C10.001 27.1282 9.87907 26.9872 9.70826 26.8149C9.53714 26.6426 9.37946 26.5016 9.35746 26.5016C9.33576 26.5016 9.45769 26.6426 9.6285 26.8149ZM11.2997 28.5374C11.6917 28.925 12.0303 29.2422 12.0523 29.2422C12.0743 29.2422 11.7712 28.925 11.3791 28.5374C10.9871 28.1499 10.6485 27.8327 10.6265 27.8327C10.6048 27.8327 10.9076 28.1499 11.2997 28.5374ZM4.61806 32.0447L4.78001 32.2185L10.4193 32.1984C15.4466 32.1806 16.043 32.1656 15.912 32.061C15.8276 31.9936 15.7906 31.9852 15.8249 32.0414C15.9318 32.2164 4.83807 32.1806 4.62142 32.005L4.45611 31.8709L4.61806 32.0447ZM20.5902 32.1978C21.9797 32.2098 24.2534 32.2098 25.6431 32.1978C27.0329 32.186 25.8959 32.1761 23.1167 32.1761C20.3375 32.1761 19.2005 32.186 20.5902 32.1978ZM17.4071 34.8554C17.4838 34.8749 17.6091 34.8749 17.6855 34.8554C17.7622 34.8355 17.6995 34.8196 17.5464 34.8196C17.3931 34.8196 17.3304 34.8355 17.4071 34.8554ZM16.0543 35.012C16.1307 35.0316 16.2563 35.0316 16.3327 35.012C16.4094 34.9922 16.3468 34.9762 16.1937 34.9762C16.0403 34.9762 15.9776 34.9922 16.0543 35.012ZM15.2586 35.0902C15.335 35.11 15.4603 35.11 15.537 35.0902C15.6137 35.0707 15.5511 35.0544 15.3977 35.0544C15.2446 35.0544 15.1819 35.0707 15.2586 35.0902ZM14.3832 35.1687C14.4599 35.1882 14.5852 35.1882 14.6616 35.1687C14.7383 35.1488 14.6756 35.1329 14.5225 35.1329C14.3691 35.1329 14.3065 35.1488 14.3832 35.1687ZM13.2691 35.249C13.3895 35.267 13.5866 35.267 13.7066 35.249C13.827 35.2309 13.7286 35.2165 13.4879 35.2165C13.2474 35.2165 13.1487 35.2309 13.2691 35.249ZM11.6578 35.3494C11.8149 35.4495 12.4306 35.4495 12.4932 35.3494C12.5241 35.3004 12.3551 35.2715 12.0404 35.2724C11.6868 35.2733 11.5738 35.2962 11.6578 35.3494ZM13.3088 35.4844C13.4512 35.5018 13.684 35.5018 13.8261 35.4844C13.9685 35.4669 13.8521 35.4528 13.5676 35.4528C13.2831 35.4528 13.1667 35.4669 13.3088 35.4844ZM17.8456 35.4832C17.9446 35.5018 18.0879 35.5012 18.164 35.4817C18.2401 35.4618 18.1591 35.4468 17.984 35.4474C17.8089 35.4483 17.7466 35.4645 17.8456 35.4832ZM19.1189 35.5614C19.2179 35.5803 19.3612 35.5794 19.4373 35.5599C19.5131 35.5403 19.4321 35.525 19.2573 35.5259C19.0822 35.5268 19.0199 35.5427 19.1189 35.5614ZM4.73143 36.4652C5.06114 36.8109 5.13264 36.8732 5.13264 36.8142C5.13264 36.8016 4.96244 36.6344 4.75465 36.4423L4.37666 36.0932L4.73143 36.4652ZM26.6977 37.5662C26.6977 37.5797 26.8138 37.6943 26.9562 37.8209L27.2147 38.0509L26.9809 37.7962C26.7631 37.559 26.6977 37.5058 26.6977 37.5662ZM25.9814 38.5031C25.9814 38.5148 26.2589 38.7878 26.5981 39.1098L27.2147 39.6949L26.6201 39.0882C26.0676 38.5247 25.9814 38.4457 25.9814 38.5031ZM12.5528 39.8666C12.6295 39.8862 12.7548 39.8862 12.8315 39.8666C12.9082 39.8468 12.8452 39.8309 12.6922 39.8309C12.5391 39.8309 12.4764 39.8468 12.5528 39.8666ZM15.7362 40.8697C15.7372 41.0419 15.7534 41.103 15.7723 41.0056C15.7913 40.9082 15.7906 40.7674 15.7708 40.6926C15.7509 40.6177 15.7353 40.6974 15.7362 40.8697ZM27.1573 40.8095C27.3443 40.8261 27.6309 40.8258 27.7938 40.8089C27.9566 40.7921 27.8035 40.7786 27.4533 40.7789C27.1035 40.7792 26.9699 40.793 27.1573 40.8095ZM11.9569 41.9037C12.056 41.9223 12.1993 41.9217 12.2754 41.9022C12.3514 41.8826 12.2705 41.8673 12.0954 41.8682C11.9203 41.8688 11.8579 41.885 11.9569 41.9037ZM13.8659 41.9037C13.9645 41.9223 14.1256 41.9223 14.224 41.9037C14.3224 41.885 14.242 41.8697 14.0449 41.8697C13.8481 41.8697 13.7675 41.885 13.8659 41.9037ZM12.2149 45.6906C12.2149 45.7468 12.3652 45.7564 12.6723 45.7201C13.2874 45.6467 13.299 45.6067 12.7056 45.6067C12.4095 45.6067 12.2149 45.6401 12.2149 45.6906ZM26.9547 45.92C26.9547 46.0706 26.9712 46.1323 26.991 46.0568C27.0112 45.9816 27.0112 45.8584 26.991 45.7829C26.9712 45.7074 26.9547 45.7691 26.9547 45.92ZM14.7428 45.8984C14.8858 45.9158 15.1007 45.9155 15.2201 45.8975C15.3396 45.8797 15.2226 45.8653 14.9601 45.8659C14.6976 45.8662 14.5995 45.8809 14.7428 45.8984ZM26.8795 47.0553C26.8801 47.2706 26.8954 47.3494 26.9137 47.2303C26.932 47.1113 26.9314 46.9351 26.9128 46.8389C26.8938 46.7426 26.8789 46.8398 26.8795 47.0553ZM14.7413 52.0825C14.8397 52.1012 15.001 52.1012 15.0994 52.0825C15.1978 52.0639 15.1172 52.0485 14.9204 52.0485C14.7233 52.0485 14.6429 52.0639 14.7413 52.0825ZM15.5385 52.084C15.6816 52.1015 15.8964 52.1012 16.0158 52.0831C16.1356 52.0654 16.0186 52.0509 15.7558 52.0515C15.4933 52.0518 15.3955 52.0666 15.5385 52.084ZM19.1577 54.1953C19.2344 54.2149 19.3597 54.2149 19.4361 54.1953C19.5128 54.1755 19.4501 54.1595 19.2971 54.1595C19.1437 54.1595 19.081 54.1755 19.1577 54.1953Z" fill="var(--fill-0, #B7D69A)"/>
</g>
</svg>
