<svg preserveAspectRatio="none" width="100%" height="100%" overflow="visible" style="display: block;" viewBox="0 0 25 25" fill="none" xmlns="http://www.w3.org/2000/svg">
<g id="la:facebook" clip-path="url(#clip0_0_9)">
<path id="Vector" d="M12.5 0.78125C6.03906 0.78125 0.78125 6.03906 0.78125 12.5C0.78125 18.9609 6.03906 24.2188 12.5 24.2188C18.9609 24.2188 24.2188 18.9609 24.2188 12.5C24.2188 6.03906 18.9609 0.78125 12.5 0.78125ZM12.5 2.73438C17.9053 2.73438 22.2656 7.09473 22.2656 12.5C22.2674 14.8377 21.4289 17.0981 19.9029 18.8691C18.377 20.6401 16.2654 21.8036 13.9531 22.1475V15.3477H16.7344L17.1709 12.5225H13.9531V10.9795C13.9531 9.80762 14.3389 8.76562 15.4355 8.76562H17.1982V6.30078C16.8887 6.25879 16.2334 6.16797 14.9951 6.16797C12.4092 6.16797 10.8936 7.5332 10.8936 10.6445V12.5225H8.23535V15.3477H10.8936V22.123C8.61304 21.7477 6.54027 20.5737 5.0456 18.8109C3.55092 17.048 2.73173 14.8112 2.73438 12.5C2.73438 7.09473 7.09473 2.73438 12.5 2.73438Z" fill="var(--fill-0, #322B2B)"/>
</g>
<defs>
<clipPath id="clip0_0_9">
<rect width="25" height="25" fill="white"/>
</clipPath>
</defs>
</svg>
